<mxfile host="app.diagrams.net" agent="Mozilla/5.0 (Windows NT 10.0; Win64; x64) AppleWebKit/537.36 (KHTML, like Gecko) Chrome/141.0.0.0 Safari/537.36" version="28.0.6">
  <diagram name="Página-1" id="5Gvda_64ftDl0GZmEhBH">
    <mxGraphModel dx="2505" dy="914" grid="1" gridSize="10" guides="1" tooltips="1" connect="1" arrows="1" fold="1" page="1" pageScale="1" pageWidth="827" pageHeight="1169" math="0" shadow="0">
      <root>
        <mxCell id="0" />
        <mxCell id="1" parent="0" />
        <mxCell id="dPJARuv6g8PlcfYMmT-h-5" value="" style="edgeStyle=orthogonalEdgeStyle;rounded=0;orthogonalLoop=1;jettySize=auto;html=1;endArrow=open;endFill=0;entryX=0.5;entryY=0;entryDx=0;entryDy=0;endSize=10;" edge="1" parent="1" source="dPJARuv6g8PlcfYMmT-h-1" target="dPJARuv6g8PlcfYMmT-h-4">
          <mxGeometry relative="1" as="geometry">
            <Array as="points">
              <mxPoint x="-0.12999999999999545" y="210" />
              <mxPoint x="-0.12999999999999545" y="210" />
            </Array>
          </mxGeometry>
        </mxCell>
        <mxCell id="dPJARuv6g8PlcfYMmT-h-1" value="&lt;p style=&quot;margin:0px;margin-top:4px;text-align:center;&quot;&gt;&lt;b&gt;Main&lt;/b&gt;&lt;/p&gt;&lt;hr size=&quot;1&quot; style=&quot;border-style:solid;&quot;&gt;&lt;p style=&quot;margin:0px;margin-left:4px;&quot;&gt;+ interfaz: Interfaz&lt;br&gt;&lt;/p&gt;&lt;hr size=&quot;1&quot; style=&quot;border-style:solid;&quot;&gt;&lt;p style=&quot;margin:0px;margin-left:4px;&quot;&gt;+ main()&lt;br&gt;&lt;/p&gt;&lt;p style=&quot;margin:0px;margin-left:4px;&quot;&gt;&amp;nbsp;→ interfaz.iniciar()&lt;/p&gt;" style="verticalAlign=top;align=left;overflow=fill;html=1;whiteSpace=wrap;" vertex="1" parent="1">
          <mxGeometry x="-73.13" y="80" width="130" height="100" as="geometry" />
        </mxCell>
        <mxCell id="dPJARuv6g8PlcfYMmT-h-8" value="" style="edgeStyle=orthogonalEdgeStyle;rounded=0;orthogonalLoop=1;jettySize=auto;html=1;endArrow=none;endFill=0;startArrow=diamondThin;startFill=1;endSize=6;strokeWidth=1;startSize=10;" edge="1" parent="1" source="dPJARuv6g8PlcfYMmT-h-4" target="dPJARuv6g8PlcfYMmT-h-7">
          <mxGeometry relative="1" as="geometry" />
        </mxCell>
        <mxCell id="dPJARuv6g8PlcfYMmT-h-18" value="" style="edgeStyle=orthogonalEdgeStyle;rounded=0;orthogonalLoop=1;jettySize=auto;html=1;entryX=0.5;entryY=0;entryDx=0;entryDy=0;endArrow=open;endFill=0;endSize=10;dashed=1;" edge="1" parent="1" source="dPJARuv6g8PlcfYMmT-h-4" target="dPJARuv6g8PlcfYMmT-h-12">
          <mxGeometry relative="1" as="geometry">
            <mxPoint x="172.81000000000006" y="315.0000000000001" as="targetPoint" />
          </mxGeometry>
        </mxCell>
        <mxCell id="dPJARuv6g8PlcfYMmT-h-4" value="&lt;p style=&quot;margin:0px;margin-top:4px;text-align:center;&quot;&gt;&lt;b&gt;Interfaz&lt;/b&gt;&lt;/p&gt;&lt;hr size=&quot;1&quot; style=&quot;border-style:solid;&quot;&gt;&lt;p style=&quot;margin:0px;margin-left:4px;&quot;&gt;- sistema: Sistema&lt;br&gt;&lt;/p&gt;&lt;hr size=&quot;1&quot; style=&quot;border-style:solid;&quot;&gt;&lt;p style=&quot;margin:0px;margin-left:4px;&quot;&gt;+ iniciar(): void&lt;br&gt;&lt;/p&gt;&lt;p style=&quot;margin:0px;margin-left:4px;&quot;&gt;+ menuPrincipal(): void&lt;/p&gt;&lt;p style=&quot;margin:0px;margin-left:4px;&quot;&gt;+ registrarJugador(): void&lt;/p&gt;&lt;p style=&quot;margin:0px;margin-left:4px;&quot;&gt;+&amp;nbsp;comenzarPartidaComun(): void&lt;/p&gt;&lt;p style=&quot;margin:0px;margin-left:4px;&quot;&gt;+ continuarPartida(): void&lt;/p&gt;&lt;p style=&quot;margin:0px;margin-left:4px;&quot;&gt;+ mostrarRanking(): void&lt;/p&gt;&lt;p style=&quot;margin:0px;margin-left:4px;&quot;&gt;- leerInput(rango): int&lt;/p&gt;" style="verticalAlign=top;align=left;overflow=fill;html=1;whiteSpace=wrap;" vertex="1" parent="1">
          <mxGeometry x="-92.19" y="250" width="185" height="170" as="geometry" />
        </mxCell>
        <mxCell id="dPJARuv6g8PlcfYMmT-h-10" value="" style="edgeStyle=orthogonalEdgeStyle;rounded=0;orthogonalLoop=1;jettySize=auto;html=1;endArrow=none;endFill=0;startArrow=diamondThin;startFill=0;startSize=10;entryX=0;entryY=0.5;entryDx=0;entryDy=0;" edge="1" parent="1" source="dPJARuv6g8PlcfYMmT-h-7" target="dPJARuv6g8PlcfYMmT-h-9">
          <mxGeometry relative="1" as="geometry">
            <mxPoint x="-116.13" y="575" as="targetPoint" />
            <Array as="points">
              <mxPoint x="-133.13" y="594" />
              <mxPoint x="-133.13" y="594" />
            </Array>
          </mxGeometry>
        </mxCell>
        <mxCell id="dPJARuv6g8PlcfYMmT-h-7" value="&lt;p style=&quot;margin:0px;margin-top:4px;text-align:center;&quot;&gt;&lt;b&gt;Sistema&lt;/b&gt;&lt;/p&gt;&lt;hr size=&quot;1&quot; style=&quot;border-style:solid;&quot;&gt;&lt;p style=&quot;margin:0px;margin-left:4px;&quot;&gt;- jugadores: List&amp;lt;Jugador&amp;gt; [*]&lt;br&gt;&lt;/p&gt;&lt;hr size=&quot;1&quot; style=&quot;border-style:solid;&quot;&gt;&lt;p style=&quot;margin:0px;margin-left:4px;&quot;&gt;+ agregarJugador(jugador: Jugador): void&lt;br&gt;&lt;/p&gt;&lt;p style=&quot;margin:0px;margin-left:4px;&quot;&gt;+ getJugadoresOrdenados():&amp;nbsp;List&amp;lt;Jugador&amp;gt;&lt;/p&gt;&lt;p style=&quot;margin:0px;margin-left:4px;&quot;&gt;+ mostrarRankingEInvictos(): void&lt;/p&gt;&lt;p style=&quot;margin:0px;margin-left:4px;&quot;&gt;&lt;br&gt;&lt;/p&gt;" style="verticalAlign=top;align=left;overflow=fill;html=1;whiteSpace=wrap;" vertex="1" parent="1">
          <mxGeometry x="-440" y="539" width="243.75" height="110" as="geometry" />
        </mxCell>
        <mxCell id="dPJARuv6g8PlcfYMmT-h-13" value="" style="edgeStyle=orthogonalEdgeStyle;rounded=0;orthogonalLoop=1;jettySize=auto;html=1;endArrow=none;endFill=0;startArrow=open;startFill=0;startSize=10;" edge="1" parent="1" source="dPJARuv6g8PlcfYMmT-h-9" target="dPJARuv6g8PlcfYMmT-h-12">
          <mxGeometry relative="1" as="geometry" />
        </mxCell>
        <mxCell id="dPJARuv6g8PlcfYMmT-h-9" value="&lt;p style=&quot;margin:0px;margin-top:4px;text-align:center;&quot;&gt;&lt;b&gt;Jugador&lt;/b&gt;&lt;/p&gt;&lt;hr size=&quot;1&quot; style=&quot;border-style:solid;&quot;&gt;&lt;p style=&quot;margin:0px;margin-left:4px;&quot;&gt;- nombre: String&lt;br&gt;&lt;/p&gt;&lt;p style=&quot;margin:0px;margin-left:4px;&quot;&gt;- edad: int&lt;/p&gt;&lt;p style=&quot;margin:0px;margin-left:4px;&quot;&gt;- partidasJugadas: int&lt;/p&gt;&lt;p style=&quot;margin:0px;margin-left:4px;&quot;&gt;- victorias: int&lt;/p&gt;&lt;p style=&quot;margin:0px;margin-left:4px;&quot;&gt;- empates: int&lt;/p&gt;&lt;hr size=&quot;1&quot; style=&quot;border-style:solid;&quot;&gt;&lt;p style=&quot;margin:0px;margin-left:4px;&quot;&gt;+ getNombre(): String&lt;br&gt;&lt;/p&gt;&lt;p style=&quot;margin:0px;margin-left:4px;&quot;&gt;+ setNombre(String): void&lt;/p&gt;&lt;p style=&quot;margin:0px;margin-left:4px;&quot;&gt;+ getEdad(): int&lt;/p&gt;&lt;p style=&quot;margin:0px;margin-left:4px;&quot;&gt;+ setEdad(int): void&lt;/p&gt;&lt;p style=&quot;margin:0px;margin-left:4px;&quot;&gt;+ registrarPartida(resultado: String): void&lt;/p&gt;&lt;p style=&quot;margin:0px;margin-left:4px;&quot;&gt;+ toString(): String&lt;/p&gt;&lt;p style=&quot;margin:0px;margin-left:4px;&quot;&gt;&lt;br&gt;&lt;/p&gt;" style="verticalAlign=top;align=left;overflow=fill;html=1;whiteSpace=wrap;" vertex="1" parent="1">
          <mxGeometry x="-116.25" y="489" width="233.12" height="210" as="geometry" />
        </mxCell>
        <mxCell id="dPJARuv6g8PlcfYMmT-h-20" value="" style="edgeStyle=orthogonalEdgeStyle;rounded=0;orthogonalLoop=1;jettySize=auto;html=1;endArrow=none;endFill=0;startArrow=diamondThin;startFill=1;startSize=10;" edge="1" parent="1" source="dPJARuv6g8PlcfYMmT-h-12" target="dPJARuv6g8PlcfYMmT-h-19">
          <mxGeometry relative="1" as="geometry" />
        </mxCell>
        <mxCell id="dPJARuv6g8PlcfYMmT-h-12" value="&lt;p style=&quot;margin:0px;margin-top:4px;text-align:center;&quot;&gt;&lt;b&gt;Partida&lt;/b&gt;&lt;/p&gt;&lt;hr size=&quot;1&quot; style=&quot;border-style:solid;&quot;&gt;&lt;p style=&quot;margin:0px;margin-left:4px;&quot;&gt;- jugadorBlanco: Jugador&lt;br&gt;&lt;/p&gt;&lt;p style=&quot;margin: 0px 0px 0px 4px;&quot;&gt;- jugadorNegro: Jugador&lt;/p&gt;&lt;p style=&quot;margin:0px;margin-left:4px;&quot;&gt;- tablero: Tablero&lt;/p&gt;&lt;p style=&quot;margin:0px;margin-left:4px;&quot;&gt;- turnoBlanco: bool&lt;/p&gt;&lt;p style=&quot;margin:0px;margin-left:4px;&quot;&gt;- mostrarBordes: bool&lt;br&gt;&lt;/p&gt;&lt;p style=&quot;margin:0px;margin-left:4px;&quot;&gt;- partidaActiva: bool&lt;/p&gt;&lt;hr size=&quot;1&quot; style=&quot;border-style:solid;&quot;&gt;&lt;p style=&quot;margin:0px;margin-left:4px;&quot;&gt;+ jugar(): void&lt;br&gt;&lt;/p&gt;&lt;p style=&quot;margin:0px;margin-left:4px;&quot;&gt;+ procesarJugada(input: String): bool&lt;/p&gt;&lt;p style=&quot;margin:0px;margin-left:4px;&quot;&gt;+ mostrarAyuda(): void&lt;/p&gt;&lt;p style=&quot;margin:0px;margin-left:4px;&quot;&gt;+ finalizarPartida(): void&lt;/p&gt;" style="verticalAlign=top;align=left;overflow=fill;html=1;whiteSpace=wrap;" vertex="1" parent="1">
          <mxGeometry x="196.87" y="499" width="233.12" height="190" as="geometry" />
        </mxCell>
        <mxCell id="dPJARuv6g8PlcfYMmT-h-22" value="" style="edgeStyle=orthogonalEdgeStyle;rounded=0;orthogonalLoop=1;jettySize=auto;html=1;endArrow=none;endFill=0;startArrow=diamondThin;startFill=1;startSize=10;" edge="1" parent="1" source="dPJARuv6g8PlcfYMmT-h-19" target="dPJARuv6g8PlcfYMmT-h-21">
          <mxGeometry relative="1" as="geometry" />
        </mxCell>
        <mxCell id="dPJARuv6g8PlcfYMmT-h-19" value="&lt;p style=&quot;margin:0px;margin-top:4px;text-align:center;&quot;&gt;&lt;b&gt;Tablero&lt;/b&gt;&lt;/p&gt;&lt;hr size=&quot;1&quot; style=&quot;border-style:solid;&quot;&gt;&lt;p style=&quot;margin:0px;margin-left:4px;&quot;&gt;- celdas: Celda[3][6]&lt;/p&gt;&lt;p style=&quot;margin:0px;margin-left:4px;&quot;&gt;- mostrarBordes: bool&lt;br&gt;&lt;/p&gt;&lt;hr size=&quot;1&quot; style=&quot;border-style:solid;&quot;&gt;&lt;p style=&quot;margin:0px;margin-left:4px;&quot;&gt;+ constructor()&lt;br&gt;&lt;/p&gt;&lt;p style=&quot;margin:0px;margin-left:4px;&quot;&gt;+ mostrarTablero(): void&lt;/p&gt;&lt;p style=&quot;margin:0px;margin-left:4px;&quot;&gt;+ setCelda(fila, col, valor, color): void&lt;/p&gt;&lt;p style=&quot;margin:0px;margin-left:4px;&quot;&gt;+ verificarGanador(): Jugador&lt;/p&gt;" style="verticalAlign=top;align=left;overflow=fill;html=1;whiteSpace=wrap;" vertex="1" parent="1">
          <mxGeometry x="208.43" y="750" width="210" height="140" as="geometry" />
        </mxCell>
        <mxCell id="dPJARuv6g8PlcfYMmT-h-21" value="&lt;p style=&quot;margin:0px;margin-top:4px;text-align:center;&quot;&gt;&lt;b&gt;Celda&lt;/b&gt;&lt;/p&gt;&lt;hr size=&quot;1&quot; style=&quot;border-style:solid;&quot;&gt;&lt;p style=&quot;margin:0px;margin-left:4px;&quot;&gt;- color: String (&quot;Blanco&quot;/&quot;Negro&quot;/&quot;&quot;)&lt;/p&gt;&lt;p style=&quot;margin:0px;margin-left:4px;&quot;&gt;- valor:&amp;nbsp;&lt;span style=&quot;background-color: transparent; color: light-dark(rgb(0, 0, 0), rgb(255, 255, 255));&quot;&gt;(&quot;C&quot;/&quot;D&quot;/&quot;&quot;)&lt;/span&gt;&lt;br&gt;&lt;/p&gt;&lt;hr size=&quot;1&quot; style=&quot;border-style:solid;&quot;&gt;&lt;p style=&quot;margin:0px;margin-left:4px;&quot;&gt;+ setColor(String): void&lt;br&gt;&lt;/p&gt;&lt;p style=&quot;margin:0px;margin-left:4px;&quot;&gt;+ getColor(): String&lt;/p&gt;&lt;p style=&quot;margin:0px;margin-left:4px;&quot;&gt;+ setValor(String): void&lt;/p&gt;&lt;p style=&quot;margin:0px;margin-left:4px;&quot;&gt;+ getValor(): String&lt;/p&gt;" style="verticalAlign=top;align=left;overflow=fill;html=1;whiteSpace=wrap;" vertex="1" parent="1">
          <mxGeometry x="208.43" y="950" width="210" height="140" as="geometry" />
        </mxCell>
        <mxCell id="dPJARuv6g8PlcfYMmT-h-23" value="" style="endArrow=open;endFill=0;html=1;edgeStyle=orthogonalEdgeStyle;align=left;verticalAlign=top;rounded=0;endSize=10;" edge="1" parent="1">
          <mxGeometry x="-1" relative="1" as="geometry">
            <mxPoint x="-370.63" y="810" as="sourcePoint" />
            <mxPoint x="-265.62" y="810" as="targetPoint" />
          </mxGeometry>
        </mxCell>
        <mxCell id="dPJARuv6g8PlcfYMmT-h-25" value="" style="endArrow=open;endFill=0;html=1;edgeStyle=orthogonalEdgeStyle;align=left;verticalAlign=top;rounded=0;endSize=10;dashed=1;" edge="1" parent="1">
          <mxGeometry x="-1" relative="1" as="geometry">
            <mxPoint x="-370.63" y="890" as="sourcePoint" />
            <mxPoint x="-265.62" y="890" as="targetPoint" />
          </mxGeometry>
        </mxCell>
        <mxCell id="dPJARuv6g8PlcfYMmT-h-27" value="" style="endArrow=none;endFill=0;html=1;edgeStyle=orthogonalEdgeStyle;align=left;verticalAlign=top;rounded=0;endSize=10;startArrow=diamondThin;startFill=0;startSize=10;" edge="1" parent="1">
          <mxGeometry x="-1" relative="1" as="geometry">
            <mxPoint x="-370.63" y="970" as="sourcePoint" />
            <mxPoint x="-265.62" y="970" as="targetPoint" />
          </mxGeometry>
        </mxCell>
        <mxCell id="dPJARuv6g8PlcfYMmT-h-28" value="" style="endArrow=none;endFill=0;html=1;edgeStyle=orthogonalEdgeStyle;align=left;verticalAlign=top;rounded=0;endSize=10;startArrow=diamondThin;startFill=1;startSize=10;" edge="1" parent="1">
          <mxGeometry x="-1" relative="1" as="geometry">
            <mxPoint x="-370.63" y="1050" as="sourcePoint" />
            <mxPoint x="-265.62" y="1050" as="targetPoint" />
          </mxGeometry>
        </mxCell>
        <mxCell id="dPJARuv6g8PlcfYMmT-h-29" value="Composición" style="text;html=1;align=center;verticalAlign=middle;resizable=0;points=[];autosize=1;strokeColor=none;fillColor=none;" vertex="1" parent="1">
          <mxGeometry x="-264.13" y="1035" width="90" height="30" as="geometry" />
        </mxCell>
        <mxCell id="dPJARuv6g8PlcfYMmT-h-30" value="Agregación" style="text;html=1;align=center;verticalAlign=middle;resizable=0;points=[];autosize=1;strokeColor=none;fillColor=none;" vertex="1" parent="1">
          <mxGeometry x="-263.13" y="955" width="80" height="30" as="geometry" />
        </mxCell>
        <mxCell id="dPJARuv6g8PlcfYMmT-h-34" value="Dependencia" style="text;html=1;align=center;verticalAlign=middle;resizable=0;points=[];autosize=1;strokeColor=none;fillColor=none;" vertex="1" parent="1">
          <mxGeometry x="-264.13" y="875" width="90" height="30" as="geometry" />
        </mxCell>
        <mxCell id="dPJARuv6g8PlcfYMmT-h-35" value="Asociación" style="text;html=1;align=center;verticalAlign=middle;resizable=0;points=[];autosize=1;strokeColor=none;fillColor=none;" vertex="1" parent="1">
          <mxGeometry x="-264.13" y="795" width="80" height="30" as="geometry" />
        </mxCell>
        <mxCell id="dPJARuv6g8PlcfYMmT-h-36" value="Relaciones" style="text;html=1;align=center;verticalAlign=middle;resizable=0;points=[];autosize=1;strokeColor=none;fillColor=none;" vertex="1" parent="1">
          <mxGeometry x="-373.13" y="720" width="80" height="30" as="geometry" />
        </mxCell>
      </root>
    </mxGraphModel>
  </diagram>
</mxfile>
